<svg xmlns="http://www.w3.org/2000/svg" width="201" height="254.738" viewBox="0 0 201 254.738">
  <g id="Grupo_1" data-name="Grupo 1" transform="translate(-312.999 -258)">
    <path id="Sustracción_1" data-name="Sustracción 1" d="M162.992,252.941h-.839L142.1,232.758,119.45,252.941h-.874L99.2,232.758,77.546,252.941h-.871L56.468,232.758,36.684,252.941h-.866L13.977,232.758,0,251.172V89.916l0-.423v-.006c0-.136,0-.275,0-.411A80.279,80.279,0,0,1,2.03,71.133,81.684,81.684,0,0,1,7.851,54.42a86.528,86.528,0,0,1,9.214-15.129A92.916,92.916,0,0,1,29.272,26.106a99.16,99.16,0,0,1,14.8-10.882,104.333,104.333,0,0,1,16.99-8.218,108.626,108.626,0,0,1,18.777-5.2,113.126,113.126,0,0,1,40.325,0,108.615,108.615,0,0,1,18.777,5.2,104.353,104.353,0,0,1,16.99,8.218,99.153,99.153,0,0,1,14.8,10.882,92.924,92.924,0,0,1,12.207,13.185A86.573,86.573,0,0,1,192.15,54.42a81.727,81.727,0,0,1,5.821,16.713A80.32,80.32,0,0,1,200,89.076c0,.138,0,.28,0,.418l0,.423,0,162.939-16.713-20.1-20.3,20.183Z" transform="translate(313.499 258.5)" fill="#ff424c" stroke="#707070" stroke-width="1"/>
    <circle id="Elipse_2" data-name="Elipse 2" cx="20" cy="20" r="20" transform="translate(409.257 331.52)" fill="#fff"/>
    <circle id="Elipse_3" data-name="Elipse 3" cx="20" cy="20" r="20" transform="translate(366.661 329.52)" fill="#fff"/>
  </g>
</svg>
