<svg xmlns="http://www.w3.org/2000/svg" width="57.177" height="72.912" viewBox="0 0 57.177 72.912"><defs><style>.a{fill:#fff;stroke:#707070;}.b{fill:#4c6291;}</style></defs><g transform="translate(-312.999 -257.991)"><path class="a" d="M45.782,71.043h-.236l-5.633-5.669-6.362,5.669h-.245l-5.442-5.669-6.082,5.669h-.245l-5.676-5.669L10.3,71.043h-.243L3.926,65.374,0,70.546V25.016a22.551,22.551,0,0,1,.57-5.041,22.944,22.944,0,0,1,1.635-4.693,24.3,24.3,0,0,1,2.588-4.249,26.1,26.1,0,0,1,3.429-3.7,27.853,27.853,0,0,1,4.157-3.057,29.306,29.306,0,0,1,4.772-2.308A30.511,30.511,0,0,1,22.425.5,31.775,31.775,0,0,1,33.752.5a30.508,30.508,0,0,1,5.274,1.461A29.311,29.311,0,0,1,43.8,4.272a27.85,27.85,0,0,1,4.157,3.057,26.1,26.1,0,0,1,3.429,3.7,24.317,24.317,0,0,1,2.587,4.249,22.956,22.956,0,0,1,1.635,4.694,22.56,22.56,0,0,1,.57,5.04v46l-4.694-5.646-5.7,5.669Z" transform="translate(313.499 258.5)"/><circle class="b" cx="5.618" cy="5.618" r="5.618" transform="translate(340.396 279.006)"/><circle class="b" cx="5.618" cy="5.618" r="5.618" transform="translate(328.431 278.445)"/></g></svg>